 http://img219.imageshack.us/img219/6416/beastly4.jpg

Country.......: USA
Genre.........: Drama, Fantasy, Romance
Date release..: 04.03.2011 [World]
Director......: Daniel Barnz
Writers.......: Daniel Barnz, Alex Flinn
Duration......: 86 min.
More..........: http://www.imdb.com/title/tt1152398
Trailer.......: http://www.imdb.com/video/imdb/vi714315801
Trailer.......:

Pilot :
A modern-day take on the "Beauty and the Beast" tale where a New York teen is transformed into a hideous monster in order to find true love. 

Cats :
Alex Pettyfer   	 ...  	Kyle
Justin Bradley 	... 	Student
Mary-Kate Olsen 	... 	Kendra
Dakota Johnson 	... 	Sloan
Erik Knudsen 	... 	Trey
Vanessa Hudgens 	... 	Lindy
Karl Graboshas 	... 	Male Teacher
Peter Krause 	... 	Rob
Lisa Gay Hamilton 	... 	Zola
Jonathan Dubsky 	... 	Student at Green Party
David Francis 	... 	Dr. Davis
Neil Patrick Harris 	... 	Will
Rhiannon Moller-Trotter 	... 	Halloween Partygoer
Steve Godin 	... 	Junkie
Gio Perez 	... 	Victor 

Data Technical :
!!! SAMPLE !!!
Audio.....: English
Subtitles.: English .sub
Format                           : AVI
Format/Info                      : Audio Video Interleave
File size                        : 701 MiB
Duration                         : 1h 26mn
Overall bit rate                 : 1 137 Kbps
Writing application              : VirtualDubMod 1.5.10.2 (build 2540/release)
Writing library                  : VirtualDubMod build 2540/release
Video
ID                               : 0
Format                           : MPEG-4 Visual
Format profile                   : Advanced Simple@L5
Format settings, BVOP            : Yes
Format settings, QPel            : No
Format settings, GMC             : No warppoints
Format settings, Matrix          : Default (MPEG)
Codec ID                         : XVID
Codec ID/Hint                    : XviD
Duration                         : 1h 26mn
Bit rate                         : 998 Kbps
Width                            : 640 pixels
Height                           : 272 pixels
Display aspect ratio             : 2.35:1
Frame rate                       : 23.976 fps
Color space                      : YUV
Chroma subsampling               : 4:2:0
Bit depth                        : 8 bits
Scan type                        : Progressive
Bits/(Pixel*Frame)               : 0.239
Stream size                      : 615 MiB (88%)
Writing library                  : XviD 1.2.1 (UTC 2008-12-04)
Audio
ID                               : 1
Format                           : MPEG Audio
Format version                   : Version 1
Format profile                   : Layer 3
Mode                             : Joint stereo
Mode extension                   : MS Stereo
Codec ID                         : 55
Codec ID/Hint                    : MP3
Duration                         : 1h 26mn
Bit rate mode                    : Variable
Bit rate                         : 128 Kbps
Channel(s)                       : 2 channels
Sampling rate                    : 48.0 KHz
Stream size                      : 77.7 MiB (11%)
Alignment                        : Aligned on interleaves
Interleave, duration             : 24 ms (0.58 video frame)
Interleave, preload duration     : 146 ms
Writing library                  : LAME3.90.
Encoding settings                : -m j -V 4 -q 2 -lowpass 17.6 --abr 128

Screen : 
http://img12.imageshack.us/img12/4818/beastly2011s1.jpg 
http://img32.imageshack.us/img32/471/beastly2011s2.jpg 
http://img850.imageshack.us/img850/4028/beastly2011s3.jpg 
http://img11.imageshack.us/img11/5393/beastly2011s4.jpg 
http://img193.imageshack.us/img193/1941/beastly2011s5.jpg